<svg width="33" height="100" viewBox="0 0 33 100" fill="none" xmlns="http://www.w3.org/2000/svg">
<path d="M32.9805 50.1741C32.9805 59.5107 31.5707 68.2465 28.7628 76.3814C25.9433 84.5163 21.9452 92.2583 16.7685 99.5959H-0.00976562C2.49772 95.956 4.8781 91.4148 7.14293 85.9838C9.40776 80.5413 11.2682 74.6943 12.7241 68.4314C14.1801 62.1685 14.9081 56.0904 14.9081 50.1857C14.9081 44.2809 14.1801 38.2029 12.7241 31.94C11.2682 25.677 9.40776 19.8301 7.14293 14.4107C4.8781 8.99125 2.49772 4.47315 -0.00976562 0.86792H16.7685C21.9799 8.18239 25.9895 15.8897 28.7859 24.0131C31.5823 32.1248 32.9805 40.8606 32.9805 50.1857V50.1741Z" fill="#1918F8"/>
</svg>
