<svg width="33" height="100" viewBox="0 0 33 100" fill="none" xmlns="http://www.w3.org/2000/svg">
<path d="M4.19454 24.0023C6.99091 15.8905 11.0006 8.17164 16.212 0.857178H32.9902C30.4827 4.46241 28.1023 8.96896 25.8375 14.3999C23.5727 19.8193 21.7123 25.6663 20.2563 31.9292C18.8004 38.1922 18.0724 44.2818 18.0724 50.1749C18.0724 56.0681 18.8004 62.1577 20.2563 68.4206C21.7123 74.6836 23.5727 80.5305 25.8375 85.9731C28.1023 91.4156 30.4827 95.9568 32.9902 99.5851H16.212C11.0353 92.236 7.02558 84.5056 4.21766 76.3707C1.39818 68.2358 0 59.5 0 50.1634C0 40.8267 1.39817 32.1025 4.19454 23.9908V24.0023Z" fill="#1918F8"/>
</svg>
