<svg width="261" height="84" viewBox="0 0 261 84" fill="none" xmlns="http://www.w3.org/2000/svg">
<path d="M71.582 65.9036C71.582 67.7479 72.0979 69.166 73.1299 70.1647C74.1618 71.1634 75.5509 71.6627 77.3039 71.6627C79.5132 71.6627 80.9817 71.0102 81.7094 69.7053C82.437 68.4003 82.8736 67.0954 83.0257 65.7904H94.6944C94.6944 70.937 93.1333 75.0849 90.0044 78.2341C88.4764 79.8453 86.6507 81.1103 84.5141 82.0358C82.3841 82.9546 79.9829 83.414 77.3105 83.414C73.6524 83.414 70.5434 82.6483 67.9835 81.1103C65.4235 79.5723 63.4655 77.5417 62.0962 75.005C61.2561 73.4737 60.6806 71.7093 60.3763 69.7119C60.0721 67.7146 59.9199 65.5308 59.9199 63.1472V43.9191C59.9199 41.5356 60.0721 39.3518 60.3763 37.3544C60.6806 35.357 61.2495 33.5926 62.0962 32.0613C63.4721 29.5246 65.4301 27.494 67.9835 25.956C70.5368 24.418 73.6458 23.6523 77.3105 23.6523C79.9829 23.6523 82.4039 24.1117 84.5802 25.0305C86.7565 25.956 88.6021 27.221 90.1301 28.8322C93.1796 32.2877 94.7076 36.7818 94.7076 42.3079H83.039C83.039 39.9243 82.523 38.18 81.4911 37.0681C80.4592 35.9562 79.07 35.3969 77.3171 35.3969C75.5641 35.3969 74.1684 35.9562 73.1431 37.0681C72.1112 38.18 71.5952 39.8511 71.5952 42.0749V65.9103L71.582 65.9036Z" fill="black"/>
<path d="M101.554 82.7194V24.3359H113.222V82.7194H101.554Z" fill="black"/>
<path d="M101.554 0.730469V12.4751H113.222V0.730469H101.554Z" fill="black"/>
<path d="M146.06 82.723V77.4299C145.299 78.2755 144.571 79.0611 143.883 79.7868C143.202 80.5192 142.435 81.1517 141.595 81.691C140.754 82.2303 139.802 82.6497 138.73 82.956C137.665 83.2623 136.402 83.4154 134.953 83.4154C130.071 83.4154 126.678 81.5711 124.773 77.8893C124.092 76.5843 123.589 74.9731 123.285 73.0556C122.98 71.1315 122.828 68.5615 122.828 65.3391V43.1149C122.828 38.8938 122.947 35.7845 123.172 33.7871C123.629 29.9522 125.421 27.0693 128.55 25.1518C129.999 24.1531 132.175 23.6537 135.072 23.6537C137.361 23.6537 139.398 24.1664 141.191 25.205C142.977 26.2437 144.525 27.7217 145.821 29.6392H146.046V0.730469H157.715V82.723H146.046H146.06ZM134.51 63.7212C134.51 66.1048 134.966 68.0222 135.886 69.4803C136.799 70.9384 138.254 71.6708 140.232 71.6708C141.985 71.6708 143.394 70.9983 144.465 69.6534C145.53 68.3085 146.066 66.5641 146.066 64.407V41.7234C146.066 39.8791 145.511 38.3611 144.406 37.176C143.301 35.9842 141.905 35.3917 140.232 35.3917C138.016 35.3917 136.514 36.0841 135.714 37.469C134.914 38.8538 134.51 40.465 134.51 42.3026V63.7212Z" fill="black"/>
<path d="M166.314 43.9113C166.314 41.5277 166.467 39.3439 166.771 37.3466C167.075 35.3492 167.644 33.5848 168.491 32.0535C169.867 29.5168 171.825 27.4862 174.385 25.9482C176.938 24.4102 180.047 23.6445 183.712 23.6445C187.376 23.6445 190.479 24.4102 193.039 25.9482C195.592 27.4862 197.557 29.5168 198.926 32.0535C199.766 33.5848 200.335 35.3492 200.646 37.3466C200.95 39.3439 201.102 41.5277 201.102 43.9113V63.1394C201.102 65.5229 200.95 67.7068 200.646 69.7041C200.341 71.7015 199.766 73.4659 198.926 74.9972C197.55 77.5339 195.585 79.5645 193.039 81.1025C190.479 82.6405 187.376 83.4062 183.712 83.4062C180.047 83.4062 176.938 82.6405 174.385 81.1025C171.825 79.5645 169.867 77.5339 168.491 74.9972C167.651 73.4659 167.082 71.7015 166.771 69.7041C166.467 67.7068 166.314 65.5229 166.314 63.1394V43.9113ZM177.983 64.9837C177.983 67.2141 178.492 68.8852 179.531 69.9904C180.563 71.1023 181.945 71.6616 183.705 71.6616C185.465 71.6616 186.847 71.1023 187.879 69.9904C188.911 68.8785 189.42 67.2141 189.42 64.9837V42.0737C189.42 39.8499 188.911 38.1721 187.879 37.0669C186.847 35.9551 185.451 35.3958 183.705 35.3958C181.959 35.3958 180.556 35.9551 179.531 37.0669C178.499 38.1788 177.983 39.8499 177.983 42.0737V64.9837Z" fill="black"/>
<path d="M2.34894 41.1292C3.91491 36.5867 6.16033 32.2641 9.07872 28.168H18.4745C17.0703 30.1869 15.7373 32.7106 14.469 35.7519C13.2007 38.7868 12.1589 42.0611 11.3435 45.5683C10.5282 49.0756 10.1205 52.4857 10.1205 55.7859C10.1205 59.0861 10.5282 62.4963 11.3435 66.0035C12.1589 69.5108 13.2007 72.7851 14.469 75.8329C15.7373 78.8807 17.0703 81.4238 18.4745 83.4556H9.07872C6.17974 79.3401 3.93432 75.0111 2.36189 70.4555C0.782979 65.9 0 61.008 0 55.7794C0 50.5509 0.782976 45.6654 2.34894 41.1228V41.1292Z" fill="#1918F8"/>
<path d="M260.949 55.7873C260.949 61.0158 260.16 65.9078 258.587 70.4633C257.008 75.0189 254.769 79.3544 251.87 83.4634H242.475C243.879 81.4251 245.212 78.882 246.48 75.8407C247.748 72.7929 248.79 69.5186 249.606 66.0113C250.421 62.5041 250.829 59.1004 250.829 55.7937C250.829 52.4871 250.421 49.0834 249.606 45.5761C248.79 42.0689 247.748 38.7946 246.48 35.7597C245.212 32.7248 243.879 30.1947 242.475 28.1758H251.87C254.789 32.2719 257.034 36.588 258.6 41.1371C260.166 45.6797 260.949 50.5717 260.949 55.7937V55.7873Z" fill="#1918F8"/>
</svg>
