<svg width="99" height="50" viewBox="0 0 99 50" fill="none" xmlns="http://www.w3.org/2000/svg">
<g id="Frame 38">
<g id="Group 35">
<g id="Group">
<path id="Vector" d="M26.9019 32.8953C26.9019 33.605 27.0997 34.1508 27.4955 34.5351C27.8912 34.9195 28.4239 35.1117 29.0961 35.1117C29.9434 35.1117 30.5065 34.8606 30.7856 34.3583C31.0646 33.8561 31.232 33.3539 31.2904 32.8517H35.7651C35.7651 34.8324 35.1665 36.4287 33.9666 37.6407C33.3806 38.2608 32.6805 38.7476 31.8611 39.1038C31.0443 39.4574 30.1235 39.6342 29.0987 39.6342C27.6959 39.6342 26.5036 39.3395 25.5219 38.7476C24.5402 38.1557 23.7894 37.3742 23.2643 36.398C22.9421 35.8086 22.7214 35.1296 22.6047 34.3609C22.488 33.5922 22.4297 32.7518 22.4297 31.8345V24.4345C22.4297 23.5172 22.488 22.6767 22.6047 21.908C22.7214 21.1393 22.9396 20.4603 23.2643 19.871C23.7919 18.8947 24.5428 18.1132 25.5219 17.5213C26.5011 16.9294 27.6933 16.6348 29.0987 16.6348C30.1235 16.6348 31.0519 16.8116 31.8865 17.1652C32.7211 17.5213 33.4288 18.0082 34.0148 18.6283C35.1842 19.9581 35.7702 21.6877 35.7702 23.8144H31.2954C31.2954 22.8971 31.0976 22.2258 30.7019 21.7978C30.3061 21.3699 29.7734 21.1547 29.1012 21.1547C28.429 21.1547 27.8937 21.3699 27.5005 21.7978C27.1048 22.2258 26.907 22.8689 26.907 23.7247V32.8978L26.9019 32.8953Z" fill="white"/>
<path id="Vector_2" d="M38.3955 39.3674V16.8984H42.8702V39.3674H38.3955Z" fill="white"/>
<path id="Vector_3" d="M38.3955 7.81274V12.3327H42.8702V7.81274H38.3955Z" fill="white"/>
<path id="Vector_4" d="M55.4626 39.3677V37.3307C55.1709 37.6561 54.8918 37.9585 54.628 38.2378C54.3667 38.5196 54.0725 38.763 53.7503 38.9706C53.4282 39.1781 53.0629 39.3396 52.6519 39.4574C52.2435 39.5753 51.759 39.6342 51.2035 39.6342C49.3314 39.6342 48.0301 38.9245 47.2995 37.5075C47.0382 37.0053 46.8454 36.3852 46.7287 35.6472C46.6121 34.9067 46.5537 33.9177 46.5537 32.6775V24.1245C46.5537 22.5 46.5994 21.3034 46.6856 20.5347C46.8607 19.0588 47.5481 17.9493 48.748 17.2113C49.3035 16.827 50.1381 16.6348 51.2491 16.6348C52.1268 16.6348 52.9081 16.8321 53.5956 17.2318C54.2805 17.6316 54.8741 18.2004 55.3713 18.9383H55.4575V7.81274H59.9323V39.3677H55.4575H55.4626ZM51.0335 32.0549C51.0335 32.9722 51.2086 33.7101 51.5612 34.2713C51.9112 34.8324 52.4693 35.1143 53.2278 35.1143C53.9 35.1143 54.4403 34.8555 54.8513 34.3379C55.2597 33.8203 55.4651 33.149 55.4651 32.3188V23.589C55.4651 22.8792 55.2521 22.295 54.8284 21.8389C54.4048 21.3802 53.8695 21.1522 53.2278 21.1522C52.378 21.1522 51.8021 21.4187 51.4952 21.9516C51.1883 22.4846 51.0335 23.1047 51.0335 23.8119V32.0549Z" fill="white"/>
<path id="Vector_5" d="M63.2305 24.4313C63.2305 23.514 63.2888 22.6735 63.4055 21.9049C63.5222 21.1362 63.7403 20.4571 64.065 19.8678C64.5927 18.8916 65.3435 18.1101 66.3252 17.5182C67.3044 16.9263 68.4967 16.6316 69.902 16.6316C71.3073 16.6316 72.497 16.9263 73.4787 17.5182C74.4579 18.1101 75.2113 18.8916 75.7364 19.8678C76.0585 20.4571 76.2767 21.1362 76.3959 21.9049C76.5126 22.6735 76.571 23.514 76.571 24.4313V31.8313C76.571 32.7486 76.5126 33.589 76.3959 34.3577C76.2792 35.1264 76.0585 35.8054 75.7364 36.3948C75.2088 37.371 74.4554 38.1525 73.4787 38.7444C72.497 39.3363 71.3073 39.631 69.902 39.631C68.4967 39.631 67.3044 39.3363 66.3252 38.7444C65.3435 38.1525 64.5927 37.371 64.065 36.3948C63.7429 35.8054 63.5247 35.1264 63.4055 34.3577C63.2888 33.589 63.2305 32.7486 63.2305 31.8313V24.4313ZM67.7052 32.541C67.7052 33.3994 67.9005 34.0426 68.2988 34.4679C68.6945 34.8958 69.2247 35.1111 69.8994 35.1111C70.5742 35.1111 71.1044 34.8958 71.5001 34.4679C71.8958 34.04 72.0912 33.3994 72.0912 32.541V23.7241C72.0912 22.8683 71.8958 22.2226 71.5001 21.7972C71.1044 21.3693 70.5691 21.1541 69.8994 21.1541C69.2298 21.1541 68.692 21.3693 68.2988 21.7972C67.9031 22.2251 67.7052 22.8683 67.7052 23.7241V32.541Z" fill="white"/>
</g>
</g>
</g>
</svg>
