<svg width="33" height="29" viewBox="0 0 33 29" fill="none" xmlns="http://www.w3.org/2000/svg">
<path d="M18.5916 3.00662C21.3358 0.0594467 26.642 0.223119 29.5476 3.00662C32.4531 5.79014 32.2918 9.99963 29.5476 12.9468L16.5996 27.8572L2.65567 12.9468C0.171447 9.99226 -0.159002 5.70306 2.65567 3.00662C5.47049 0.310126 9.84935 0.322033 12.6156 3.00662H13.6116L15.6036 5.98868L18.5916 3.00662Z" fill="#1918F8"/>
<path d="M18.5916 3.00662C21.3358 0.0594467 26.642 0.223119 29.5476 3.00662C32.4531 5.79014 32.2918 9.99963 29.5476 12.9468L16.5996 27.8572L2.65567 12.9468C0.171447 9.99226 -0.159002 5.70306 2.65567 3.00662C5.47049 0.310126 9.84935 0.322033 12.6156 3.00662H13.6116L15.6036 5.98868L18.5916 3.00662Z" stroke="#1918F8" stroke-width="0.855608" stroke-linecap="round"/>
</svg>
