<svg width="48" height="49" viewBox="0 0 48 49" fill="none" xmlns="http://www.w3.org/2000/svg">
<g clip-path="url(#clip0_70_7394)">
<path opacity="0.3" d="M24 48.8574C37.1295 48.8574 48 37.9634 48 24.8574C48 11.728 37.106 0.857422 23.9765 0.857422C10.8706 0.857422 0 11.728 0 24.8574C0 37.9634 10.8941 48.8574 24 48.8574Z" fill="black"/>
<path d="M29.873 14.7061C33.5078 14.7063 36.1514 17.3647 36.1514 21.1465C36.1513 23.9645 34.6046 26.7584 32.335 29.3008C30.0784 31.8285 27.1994 34.0027 24.751 35.5635L24.7275 35.5781L24.7061 35.5947C24.5303 35.7236 24.3525 35.8418 24.1982 35.9248C24.1327 35.9601 24.0803 35.9808 24.043 35.9951C23.9907 35.9768 23.9194 35.947 23.8291 35.9023C23.6365 35.807 23.4224 35.6803 23.2041 35.5498C20.7543 34.0283 17.8897 31.8598 15.6465 29.3291C13.3867 26.7797 11.8487 23.9674 11.8486 21.1465C11.8486 17.3627 14.4709 14.7061 18.1279 14.7061C20.393 14.7062 22.1499 15.9459 23.2607 17.9082L24.0068 19.2266L24.7422 17.9023C25.8256 15.9512 27.6256 14.7061 29.873 14.7061Z" stroke="white" stroke-width="1.69798"/>
</g>
<defs>
<clipPath id="clip0_70_7394">
<rect width="48" height="48" fill="white" transform="translate(0 0.857422)"/>
</clipPath>
</defs>
</svg>
