<svg width="33" height="99" viewBox="0 0 33 99" fill="none" xmlns="http://www.w3.org/2000/svg">
<path id="Vector" d="M4.19454 23.1451C6.99091 15.0334 11.0006 7.31447 16.212 0H32.9902C30.4827 3.60523 28.1023 8.11178 25.8375 13.5427C23.5727 18.9621 21.7123 24.8091 20.2563 31.072C18.8004 37.335 18.0724 43.4246 18.0724 49.3177C18.0724 55.2109 18.8004 61.3005 20.2563 67.5635C21.7123 73.8264 23.5727 79.6734 25.8375 85.1159C28.1023 90.5584 30.4827 95.0996 32.9902 98.728H16.212C11.0353 91.3788 7.02558 83.6484 4.21766 75.5135C1.39818 67.3786 0 58.6428 0 49.3062C0 39.9696 1.39817 31.2454 4.19454 23.1336V23.1451Z" fill="#1918F8"/>
</svg>
