<svg width="262" height="84" viewBox="0 0 262 84" fill="none" xmlns="http://www.w3.org/2000/svg">
<path d="M72.1074 66.0301C72.1074 67.8743 72.6233 69.2925 73.6552 70.2911C74.6872 71.2898 76.0763 71.7892 77.8292 71.7892C80.0386 71.7892 81.5071 71.1367 82.2348 69.8318C82.9624 68.5268 83.399 67.2218 83.5511 65.9169H95.2198C95.2198 71.0635 93.6587 75.2114 90.5298 78.3606C89.0018 79.9718 87.1761 81.2368 85.0395 82.1623C82.9095 83.081 80.5083 83.5404 77.8359 83.5404C74.1778 83.5404 71.0688 82.7748 68.5089 81.2368C65.9489 79.6988 63.9909 77.6681 62.6216 75.1315C61.7815 73.6001 61.206 71.8358 60.9017 69.8384C60.5975 67.841 60.4453 65.6572 60.4453 63.2737V44.0456C60.4453 41.662 60.5975 39.4782 60.9017 37.4808C61.206 35.4835 61.7749 33.7191 62.6216 32.1878C63.9975 29.6511 65.9555 27.6204 68.5089 26.0825C71.0622 24.5445 74.1712 23.7788 77.8359 23.7788C80.5083 23.7788 82.9293 24.2382 85.1056 25.157C87.2819 26.0825 89.1275 27.3475 90.6555 28.9587C93.705 32.4142 95.233 36.9083 95.233 42.4343H83.5643C83.5643 40.0508 83.0484 38.3064 82.0165 37.1946C80.9845 36.0827 79.5954 35.5234 77.8425 35.5234C76.0895 35.5234 74.6938 36.0827 73.6685 37.1946C72.6366 38.3064 72.1206 39.9776 72.1206 42.2013V66.0367L72.1074 66.0301Z" fill="black"/>
<path d="M102.079 82.8458V24.4624H113.748V82.8458H102.079Z" fill="black"/>
<path d="M102.079 0.856934V12.6015H113.748V0.856934H102.079Z" fill="black"/>
<path d="M146.585 82.8494V77.5564C145.824 78.4019 145.097 79.1876 144.409 79.9133C143.727 80.6457 142.96 81.2782 142.12 81.8174C141.28 82.3567 140.327 82.7762 139.256 83.0825C138.191 83.3887 136.927 83.5419 135.479 83.5419C130.597 83.5419 127.203 81.6976 125.298 78.0158C124.617 76.7108 124.114 75.0996 123.81 73.1821C123.506 71.258 123.354 68.688 123.354 65.4656V43.2414C123.354 39.0202 123.473 35.911 123.697 33.9136C124.154 30.0786 125.947 27.1957 129.075 25.2782C130.524 24.2796 132.7 23.7802 135.598 23.7802C137.886 23.7802 139.924 24.2929 141.716 25.3315C143.502 26.3701 145.05 27.8482 146.347 29.7657H146.572V0.856934H158.24V82.8494H146.572H146.585ZM135.035 63.8477C135.035 66.2312 135.492 68.1487 136.411 69.6068C137.324 71.0649 138.779 71.7973 140.757 71.7973C142.51 71.7973 143.919 71.1248 144.991 69.7799C146.056 68.435 146.592 66.6906 146.592 64.5334V41.8499C146.592 40.0056 146.036 38.4876 144.931 37.3025C143.827 36.1107 142.431 35.5182 140.757 35.5182C138.541 35.5182 137.04 36.2106 136.239 37.5954C135.439 38.9803 135.035 40.5915 135.035 42.4291V63.8477Z" fill="black"/>
<path d="M166.84 44.0378C166.84 41.6542 166.992 39.4704 167.296 37.473C167.601 35.4756 168.169 33.7113 169.016 32.18C170.392 29.6433 172.35 27.6126 174.91 26.0746C177.463 24.5367 180.572 23.771 184.237 23.771C187.902 23.771 191.004 24.5367 193.564 26.0746C196.117 27.6126 198.082 29.6433 199.451 32.18C200.291 33.7113 200.86 35.4756 201.171 37.473C201.475 39.4704 201.628 41.6542 201.628 44.0378V63.2659C201.628 65.6494 201.475 67.8332 201.171 69.8306C200.867 71.828 200.291 73.5923 199.451 75.1237C198.075 77.6603 196.111 79.691 193.564 81.229C191.004 82.767 187.902 83.5326 184.237 83.5326C180.572 83.5326 177.463 82.767 174.91 81.229C172.35 79.691 170.392 77.6603 169.016 75.1237C168.176 73.5923 167.607 71.828 167.296 69.8306C166.992 67.8332 166.84 65.6494 166.84 63.2659V44.0378ZM178.509 65.1101C178.509 67.3405 179.018 69.0117 180.056 70.1169C181.088 71.2288 182.471 71.788 184.23 71.788C185.99 71.788 187.372 71.2288 188.404 70.1169C189.436 69.005 189.946 67.3405 189.946 65.1101V42.2002C189.946 39.9764 189.436 38.2986 188.404 37.1934C187.372 36.0815 185.977 35.5223 184.23 35.5223C182.484 35.5223 181.082 36.0815 180.056 37.1934C179.024 38.3053 178.509 39.9764 178.509 42.2002V65.1101Z" fill="black"/>
<path d="M2.87433 41.2557C4.4403 36.7131 6.68572 32.3905 9.60411 28.2944H18.9999C17.5957 30.3134 16.2627 32.837 14.9944 35.8784C13.7261 38.9132 12.6843 42.1875 11.8689 45.6948C11.0536 49.202 10.6459 52.6122 10.6459 55.9124C10.6459 59.2126 11.0536 62.6227 11.8689 66.13C12.6843 69.6372 13.7261 72.9115 14.9944 75.9593C16.2627 79.0071 17.5957 81.5502 18.9999 83.5821H9.60411C6.70513 79.4666 4.45971 75.1375 2.88728 70.582C1.30837 66.0265 0.525391 61.1344 0.525391 55.9059C0.525391 50.6774 1.30837 45.7918 2.87433 41.2492V41.2557Z" fill="#1918F8"/>
<path d="M261.475 55.9137C261.475 61.1422 260.685 66.0343 259.113 70.5898C257.534 75.1453 255.295 79.4809 252.396 83.5899H243C244.404 81.5516 245.737 79.0085 247.006 75.9671C248.274 72.9193 249.316 69.645 250.131 66.1378C250.946 62.6305 251.354 59.2268 251.354 55.9202C251.354 52.6135 250.946 49.2098 250.131 45.7026C249.316 42.1953 248.274 38.921 247.006 35.8862C245.737 32.8513 244.404 30.3212 243 28.3022H252.396C255.314 32.3983 257.56 36.7145 259.126 41.2635C260.692 45.8061 261.475 50.6981 261.475 55.9202V55.9137Z" fill="#1918F8"/>
</svg>
