<svg width="33" height="99" viewBox="0 0 33 99" fill="none" xmlns="http://www.w3.org/2000/svg">
<path id="Vector" d="M32.9805 49.3169C32.9805 58.6536 31.5707 67.3893 28.7628 75.5242C25.9433 83.6591 21.9452 91.4011 16.7685 98.7387H-0.00976562C2.49772 95.0988 4.8781 90.5576 7.14293 85.1266C9.40776 79.6841 11.2682 73.8372 12.7241 67.5742C14.1801 61.3113 14.9081 55.2332 14.9081 49.3285C14.9081 43.4238 14.1801 37.3457 12.7241 31.0828C11.2682 24.8198 9.40776 18.9729 7.14293 13.5535C4.8781 8.13408 2.49772 3.61598 -0.00976562 0.0107422H16.7685C21.9799 7.32521 25.9895 15.0326 28.7859 23.1559C31.5823 31.2677 32.9805 40.0034 32.9805 49.3285V49.3169Z" fill="#1918F8"/>
</svg>
