<svg width="86" height="45" viewBox="0 0 86 45" fill="none" xmlns="http://www.w3.org/2000/svg">
<path d="M23.3693 29.3769C23.3693 30.0015 23.5412 30.4817 23.885 30.82C24.2287 31.1582 24.6915 31.3273 25.2754 31.3273C26.0114 31.3273 26.5006 31.1063 26.743 30.6644C26.9854 30.2224 27.1309 29.7805 27.1815 29.3385H31.0687C31.0687 31.0815 30.5486 32.4863 29.5063 33.5528C28.9973 34.0985 28.3891 34.5269 27.6773 34.8403C26.9678 35.1515 26.1679 35.3071 25.2776 35.3071C24.059 35.3071 23.0234 35.0478 22.1706 34.5269C21.3178 34.0061 20.6655 33.3183 20.2094 32.4592C19.9295 31.9406 19.7378 31.3431 19.6364 30.6666C19.5351 29.9902 19.4844 29.2506 19.4844 28.4434V21.9314C19.4844 21.1241 19.5351 20.3845 19.6364 19.7081C19.7378 19.0316 19.9273 18.4341 20.2094 17.9155C20.6677 17.0564 21.32 16.3687 22.1706 15.8478C23.0211 15.3269 24.0568 15.0676 25.2776 15.0676C26.1679 15.0676 26.9744 15.2232 27.6994 15.5344C28.4244 15.8478 29.0392 16.2762 29.5482 16.8219C30.5641 17.9922 31.0731 19.5142 31.0731 21.3857H27.1859C27.1859 20.5785 27.0141 19.9877 26.6703 19.6111C26.3265 19.2346 25.8638 19.0452 25.2798 19.0452C24.6959 19.0452 24.2309 19.2346 23.8894 19.6111C23.5456 19.9877 23.3737 20.5537 23.3737 21.3068V29.3791L23.3693 29.3769Z" fill="white"/>
<path d="M33.3535 35.0725V15.2998H37.2407V35.0725H33.3535Z" fill="white"/>
<path d="M33.3535 7.3042V11.2817H37.2407V7.3042H33.3535Z" fill="white"/>
<path d="M48.1795 35.0726V33.28C47.926 33.5664 47.6837 33.8324 47.4545 34.0782C47.2275 34.3262 46.9719 34.5404 46.692 34.7231C46.4122 34.9057 46.0949 35.0478 45.7379 35.1515C45.3831 35.2552 44.9622 35.3071 44.4796 35.3071C42.8534 35.3071 41.7229 34.6825 41.0883 33.4356C40.8613 32.9936 40.6938 32.448 40.5925 31.7986C40.4911 31.1469 40.4404 30.2765 40.4404 29.1852V21.6585C40.4404 20.229 40.4801 19.1759 40.555 18.4995C40.7071 17.2007 41.3042 16.2244 42.3465 15.575C42.8291 15.2367 43.5541 15.0676 44.5193 15.0676C45.2817 15.0676 45.9604 15.2412 46.5576 15.593C47.1526 15.9448 47.6682 16.4453 48.1001 17.0947H48.1751V7.3042H52.0622V35.0726H48.1751H48.1795ZM44.332 28.6373C44.332 29.4445 44.484 30.0939 44.7903 30.5877C45.0944 31.0815 45.5792 31.3296 46.2381 31.3296C46.822 31.3296 47.2914 31.1018 47.6484 30.6463C48.0032 30.1909 48.1817 29.6001 48.1817 28.8695V21.1873C48.1817 20.5627 47.9966 20.0486 47.6286 19.6472C47.2606 19.2436 46.7956 19.0429 46.2381 19.0429C45.4999 19.0429 44.9997 19.2774 44.733 19.7464C44.4664 20.2154 44.332 20.7611 44.332 21.3834V28.6373Z" fill="white"/>
<path d="M54.9277 21.928C54.9277 21.1207 54.9784 20.3811 55.0798 19.7047C55.1811 19.0282 55.3707 18.4307 55.6527 17.9121C56.1111 17.053 56.7633 16.3653 57.6161 15.8444C58.4667 15.3235 59.5024 15.0642 60.7232 15.0642C61.944 15.0642 62.9775 15.3235 63.8303 15.8444C64.6809 16.3653 65.3353 17.053 65.7915 17.9121C66.0713 18.4307 66.2608 19.0282 66.3644 19.7047C66.4658 20.3811 66.5164 21.1207 66.5164 21.928V28.4399C66.5164 29.2472 66.4658 29.9868 66.3644 30.6632C66.263 31.3397 66.0713 31.9372 65.7915 32.4558C65.3331 33.3149 64.6786 34.0026 63.8303 34.5235C62.9775 35.0444 61.944 35.3037 60.7232 35.3037C59.5024 35.3037 58.4667 35.0444 57.6161 34.5235C56.7633 34.0026 56.1111 33.3149 55.6527 32.4558C55.3729 31.9372 55.1833 31.3397 55.0798 30.6632C54.9784 29.9868 54.9277 29.2472 54.9277 28.4399V21.928ZM58.8149 29.0645C58.8149 29.8199 58.9846 30.3859 59.3305 30.7602C59.6743 31.1367 60.1348 31.3261 60.721 31.3261C61.3071 31.3261 61.7677 31.1367 62.1115 30.7602C62.4552 30.3836 62.6249 29.8199 62.6249 29.0645V21.3056C62.6249 20.5525 62.4552 19.9843 62.1115 19.61C61.7677 19.2334 61.3027 19.044 60.721 19.044C60.1392 19.044 59.6721 19.2334 59.3305 19.61C58.9868 19.9865 58.8149 20.5525 58.8149 21.3056V29.0645Z" fill="white"/>
</svg>
